    <svg
      data-v-6805eed4=""
      version="1.0"
      xmlns="http://www.w3.org/2000/svg"
      xmlns:xlink="http://www.w3.org/1999/xlink"
      width="100%"
      height="100%"
      viewBox="0 0 340.000000 250.000000"
      preserveAspectRatio="xMidYMid meet"
      color-interpolation-filters="sRGB"
      style="margin: auto"
    >
     <g data-v-6805eed4="" fill="#FFD700" class="basesvg"><g fill-rule="" class="tp-name"><g transform="scale(1)"><g>
     <g fill="#ff0050" data-gra-ignore="true" transform="translate(1, 1)"><path d="M16.74 2.16L1.74 2.16 7.38-44.1 14.28-44.1 12.72-31.26 20.94-31.26Q27.18-31.26 30.3-28.38 33.42-25.5 33.42-19.86L33.42-19.86Q33.42-18.42 33.24-16.86L33.24-16.86 32.7-12.3Q30.96 2.16 16.74 2.16L16.74 2.16ZM9.42-4.26L17.52-4.26Q24.72-4.26 25.68-12.12L25.68-12.12 26.28-17.04Q26.4-18.24 26.4-18.72L26.4-18.72Q26.4-24.84 20.16-24.84L20.16-24.84 11.94-24.84 9.42-4.26ZM49.74-35.76L41.88-35.76 42.78-42.96 50.64-42.96 49.74-35.76ZM48.78-31.26L44.64 2.16 37.74 2.16 41.88-31.26 48.78-31.26ZM59.52 2.16L52.62 2.16 58.26-44.1 65.16-44.1 59.52 2.16ZM74.22 2.16L67.32 2.16 72.96-44.1 79.86-44.1 74.22 2.16ZM82.56-12.24L83.1-16.8Q84.84-31.26 98.58-31.26L98.58-31.26 106.44-31.26 108-44.1 114.9-44.1 109.26 2.16 94.8 2.16Q82.38 2.16 82.38-9.24L82.38-9.24Q82.38-10.62 82.56-12.24L82.56-12.24ZM95.58-4.26L103.14-4.26 105.66-24.96 97.8-24.96Q91.02-24.96 90.06-16.98L90.06-16.98 89.46-12.06Q89.34-10.86 89.34-10.32L89.34-10.32Q89.34-4.26 95.58-4.26L95.58-4.26ZM170.58-43.02L169.98-38.1 149.34-38.1 148.74-34.32 159.96-34.32Q162.66-34.32 163.98-33 165.3-31.68 165-29.04L165-29.04 161.64-1.44 169.5-1.44 168.96 3.42 118.32 3.42 118.86-1.44 125.04-1.44 128.4-29.34Q128.7-31.62 130.08-32.97 131.46-34.32 133.74-34.32L133.74-34.32 142.8-34.32 143.4-38.1 124.2-38.1 124.8-43.02 144.24-43.02 145.02-47.52 150.96-47.52 150.18-43.02 170.58-43.02ZM158.76-25.98L159.18-29.52 134.16-29.52 133.74-25.98 158.76-25.98ZM157.86-17.76L158.28-21.48 133.2-21.48 132.78-17.76 157.86-17.76ZM157.02-9.6L157.38-13.32 132.24-13.32 131.76-9.6 157.02-9.6ZM156.12-1.44L156.54-5.16 131.28-5.16 130.8-1.44 156.12-1.44ZM184.86 4.32Q181.32 4.08 178.44 2.58L178.44 2.58 179.1-2.82Q180.78-2.04 183.06-1.38L183.06-1.38 183.54-1.26Q183.84-1.26 183.96-1.47 184.08-1.68 184.2-2.22L184.2-2.22 185.76-15.66 179.34-13.86 180.12-19.8Q183.18-20.4 186.48-21.42L186.48-21.42 187.8-32.7 181.44-32.7 182.1-37.86 188.4-37.86 189.54-47.28 195-47.28 193.86-37.86 198.66-37.86 198.06-32.7 193.26-32.7 192.12-23.16Q192.78-23.4 193.41-23.61 194.04-23.82 194.58-24L194.58-24 197.16-24.9 196.86-22.2Q203.1-25.26 207.48-28.98L207.48-28.98 198.84-28.98 199.38-33.54 205.02-33.54 203.28-37.86 208.44-37.86 210.12-33.54 212.82-33.54 213.54-39.66Q209.22-39.36 201-39L201-39 201.6-43.86Q216.72-44.52 230.88-45.96L230.88-45.96 230.34-40.92Q226.5-40.56 224.64-40.44L224.64-40.44 218.88-39.96 218.16-33.54 220.68-33.54 223.2-38.58 228.54-38.58 226.02-33.54 231.72-33.54 231.18-28.98 222.18-28.98Q227.04-24.9 232.92-21.36L232.92-21.36 229.2-17.82Q223.14-21.9 217.5-27.96L217.5-27.96 216.6-20.52 211.38-20.52 212.16-27.66Q206.76-22.02 199.02-18.06L199.02-18.06 196.62-20.22 196.5-19.08Q194.76-18.42 191.4-17.34L191.4-17.34 189.42-0.42Q189.12 1.92 187.95 3.18 186.78 4.44 184.86 4.32L184.86 4.32ZM228.06-13.8L226.2 3.9 196.62 3.9 198.96-15.12Q199.2-16.98 200.46-18.06 201.72-19.14 203.64-19.14L203.64-19.14 223.8-19.14Q225.9-19.14 227.01-18.03 228.12-16.92 228.12-14.82L228.12-14.82Q228.12-14.16 228.06-13.8L228.06-13.8ZM210.36-9.96L210.84-14.46 203.82-14.46 203.28-9.96 210.36-9.96ZM215.22-9.96L222.42-9.96 222.9-14.46 215.64-14.46 215.22-9.96ZM209.4-0.78L209.88-5.64 202.8-5.64 202.26-0.78 209.4-0.78ZM221.94-5.64L214.74-5.64 214.26-0.78 221.4-0.78 221.94-5.64Z" transform="translate(-1.7400000095367432, 47.52000045776367)"></path></g><g fill="#00faf0" data-gra-ignore="true" transform="translate(-1, -1)"><path d="M16.74 2.16L1.74 2.16 7.38-44.1 14.28-44.1 12.72-31.26 20.94-31.26Q27.18-31.26 30.3-28.38 33.42-25.5 33.42-19.86L33.42-19.86Q33.42-18.42 33.24-16.86L33.24-16.86 32.7-12.3Q30.96 2.16 16.74 2.16L16.74 2.16ZM9.42-4.26L17.52-4.26Q24.72-4.26 25.68-12.12L25.68-12.12 26.28-17.04Q26.4-18.24 26.4-18.72L26.4-18.72Q26.4-24.84 20.16-24.84L20.16-24.84 11.94-24.84 9.42-4.26ZM49.74-35.76L41.88-35.76 42.78-42.96 50.64-42.96 49.74-35.76ZM48.78-31.26L44.64 2.16 37.74 2.16 41.88-31.26 48.78-31.26ZM59.52 2.16L52.62 2.16 58.26-44.1 65.16-44.1 59.52 2.16ZM74.22 2.16L67.32 2.16 72.96-44.1 79.86-44.1 74.22 2.16ZM82.56-12.24L83.1-16.8Q84.84-31.26 98.58-31.26L98.58-31.26 106.44-31.26 108-44.1 114.9-44.1 109.26 2.16 94.8 2.16Q82.38 2.16 82.38-9.24L82.38-9.24Q82.38-10.62 82.56-12.24L82.56-12.24ZM95.58-4.26L103.14-4.26 105.66-24.96 97.8-24.96Q91.02-24.96 90.06-16.98L90.06-16.98 89.46-12.06Q89.34-10.86 89.34-10.32L89.34-10.32Q89.34-4.26 95.58-4.26L95.58-4.26ZM170.58-43.02L169.98-38.1 149.34-38.1 148.74-34.32 159.96-34.32Q162.66-34.32 163.98-33 165.3-31.68 165-29.04L165-29.04 161.64-1.44 169.5-1.44 168.96 3.42 118.32 3.42 118.86-1.44 125.04-1.44 128.4-29.34Q128.7-31.62 130.08-32.97 131.46-34.32 133.74-34.32L133.74-34.32 142.8-34.32 143.4-38.1 124.2-38.1 124.8-43.02 144.24-43.02 145.02-47.52 150.96-47.52 150.18-43.02 170.58-43.02ZM158.76-25.98L159.18-29.52 134.16-29.52 133.74-25.98 158.76-25.98ZM157.86-17.76L158.28-21.48 133.2-21.48 132.78-17.76 157.86-17.76ZM157.02-9.6L157.38-13.32 132.24-13.32 131.76-9.6 157.02-9.6ZM156.12-1.44L156.54-5.16 131.28-5.16 130.8-1.44 156.12-1.44ZM184.86 4.32Q181.32 4.08 178.44 2.58L178.44 2.58 179.1-2.82Q180.78-2.04 183.06-1.38L183.06-1.38 183.54-1.26Q183.84-1.26 183.96-1.47 184.08-1.68 184.2-2.22L184.2-2.22 185.76-15.66 179.34-13.86 180.12-19.8Q183.18-20.4 186.48-21.42L186.48-21.42 187.8-32.7 181.44-32.7 182.1-37.86 188.4-37.86 189.54-47.28 195-47.28 193.86-37.86 198.66-37.86 198.06-32.7 193.26-32.7 192.12-23.16Q192.78-23.4 193.41-23.61 194.04-23.82 194.58-24L194.58-24 197.16-24.9 196.86-22.2Q203.1-25.26 207.48-28.98L207.48-28.98 198.84-28.98 199.38-33.54 205.02-33.54 203.28-37.86 208.44-37.86 210.12-33.54 212.82-33.54 213.54-39.66Q209.22-39.36 201-39L201-39 201.6-43.86Q216.72-44.52 230.88-45.96L230.88-45.96 230.34-40.92Q226.5-40.56 224.64-40.44L224.64-40.44 218.88-39.96 218.16-33.54 220.68-33.54 223.2-38.58 228.54-38.58 226.02-33.54 231.72-33.54 231.18-28.98 222.18-28.98Q227.04-24.9 232.92-21.36L232.92-21.36 229.2-17.82Q223.14-21.9 217.5-27.96L217.5-27.96 216.6-20.52 211.38-20.52 212.16-27.66Q206.76-22.02 199.02-18.06L199.02-18.06 196.62-20.22 196.5-19.08Q194.76-18.42 191.4-17.34L191.4-17.34 189.42-0.42Q189.12 1.92 187.95 3.18 186.78 4.44 184.86 4.32L184.86 4.32ZM228.06-13.8L226.2 3.9 196.62 3.9 198.96-15.12Q199.2-16.98 200.46-18.06 201.72-19.14 203.64-19.14L203.64-19.14 223.8-19.14Q225.9-19.14 227.01-18.03 228.12-16.92 228.12-14.82L228.12-14.82Q228.12-14.16 228.06-13.8L228.06-13.8ZM210.36-9.96L210.84-14.46 203.82-14.46 203.28-9.96 210.36-9.96ZM215.22-9.96L222.42-9.96 222.9-14.46 215.64-14.46 215.22-9.96ZM209.4-0.78L209.88-5.64 202.8-5.64 202.26-0.78 209.4-0.78ZM221.94-5.64L214.74-5.64 214.26-0.78 221.4-0.78 221.94-5.64Z" transform="translate(-1.7400000095367432, 47.52000045776367)"></path></g><g><path d="M16.74 2.16L1.74 2.16 7.38-44.1 14.28-44.1 12.72-31.26 20.94-31.26Q27.18-31.26 30.3-28.38 33.42-25.5 33.42-19.86L33.42-19.86Q33.42-18.42 33.24-16.86L33.24-16.86 32.7-12.3Q30.96 2.16 16.74 2.16L16.74 2.16ZM9.42-4.26L17.52-4.26Q24.72-4.26 25.68-12.12L25.68-12.12 26.28-17.04Q26.4-18.24 26.4-18.72L26.4-18.72Q26.4-24.84 20.16-24.84L20.16-24.84 11.94-24.84 9.42-4.26ZM49.74-35.76L41.88-35.76 42.78-42.96 50.64-42.96 49.74-35.76ZM48.78-31.26L44.64 2.16 37.74 2.16 41.88-31.26 48.78-31.26ZM59.52 2.16L52.62 2.16 58.26-44.1 65.16-44.1 59.52 2.16ZM74.22 2.16L67.32 2.16 72.96-44.1 79.86-44.1 74.22 2.16ZM82.56-12.24L83.1-16.8Q84.84-31.26 98.58-31.26L98.58-31.26 106.44-31.26 108-44.1 114.9-44.1 109.26 2.16 94.8 2.16Q82.38 2.16 82.38-9.24L82.38-9.24Q82.38-10.62 82.56-12.24L82.56-12.24ZM95.58-4.26L103.14-4.26 105.66-24.96 97.8-24.96Q91.02-24.96 90.06-16.98L90.06-16.98 89.46-12.06Q89.34-10.86 89.34-10.32L89.34-10.32Q89.34-4.26 95.58-4.26L95.58-4.26ZM170.58-43.02L169.98-38.1 149.34-38.1 148.74-34.32 159.96-34.32Q162.66-34.32 163.98-33 165.3-31.68 165-29.04L165-29.04 161.64-1.44 169.5-1.44 168.96 3.42 118.32 3.42 118.86-1.44 125.04-1.44 128.4-29.34Q128.7-31.62 130.08-32.97 131.46-34.32 133.74-34.32L133.74-34.32 142.8-34.32 143.4-38.1 124.2-38.1 124.8-43.02 144.24-43.02 145.02-47.52 150.96-47.52 150.18-43.02 170.58-43.02ZM158.76-25.98L159.18-29.52 134.16-29.52 133.74-25.98 158.76-25.98ZM157.86-17.76L158.28-21.48 133.2-21.48 132.78-17.76 157.86-17.76ZM157.02-9.6L157.38-13.32 132.24-13.32 131.76-9.6 157.02-9.6ZM156.12-1.44L156.54-5.16 131.28-5.16 130.8-1.44 156.12-1.44ZM184.86 4.32Q181.32 4.08 178.44 2.58L178.44 2.58 179.1-2.82Q180.78-2.04 183.06-1.38L183.06-1.38 183.54-1.26Q183.84-1.26 183.96-1.47 184.08-1.68 184.2-2.22L184.2-2.22 185.76-15.66 179.34-13.86 180.12-19.8Q183.18-20.4 186.48-21.42L186.48-21.42 187.8-32.7 181.44-32.7 182.1-37.86 188.4-37.86 189.54-47.28 195-47.28 193.86-37.86 198.66-37.86 198.06-32.7 193.26-32.7 192.12-23.16Q192.78-23.4 193.41-23.61 194.04-23.82 194.58-24L194.58-24 197.16-24.9 196.86-22.2Q203.1-25.26 207.48-28.98L207.48-28.98 198.84-28.98 199.38-33.54 205.02-33.54 203.28-37.86 208.44-37.86 210.12-33.54 212.82-33.54 213.54-39.66Q209.22-39.36 201-39L201-39 201.6-43.86Q216.72-44.52 230.88-45.96L230.88-45.96 230.34-40.92Q226.5-40.56 224.64-40.44L224.64-40.44 218.88-39.96 218.16-33.54 220.68-33.54 223.2-38.58 228.54-38.58 226.02-33.54 231.72-33.54 231.18-28.98 222.18-28.98Q227.04-24.9 232.92-21.36L232.92-21.36 229.2-17.82Q223.14-21.9 217.5-27.96L217.5-27.96 216.6-20.52 211.38-20.52 212.16-27.66Q206.76-22.02 199.02-18.06L199.02-18.06 196.62-20.22 196.5-19.08Q194.76-18.42 191.4-17.34L191.4-17.34 189.42-0.42Q189.12 1.92 187.95 3.18 186.78 4.44 184.86 4.32L184.86 4.32ZM228.06-13.8L226.2 3.9 196.62 3.9 198.96-15.12Q199.2-16.98 200.46-18.06 201.72-19.14 203.64-19.14L203.64-19.14 223.8-19.14Q225.9-19.14 227.01-18.03 228.12-16.92 228.12-14.82L228.12-14.82Q228.12-14.16 228.06-13.8L228.06-13.8ZM210.36-9.96L210.84-14.46 203.82-14.46 203.28-9.96 210.36-9.96ZM215.22-9.96L222.42-9.96 222.9-14.46 215.64-14.46 215.22-9.96ZM209.4-0.78L209.88-5.64 202.8-5.64 202.26-0.78 209.4-0.78ZM221.94-5.64L214.74-5.64 214.26-0.78 221.4-0.78 221.94-5.64Z" transform="translate(-1.7400000095367432, 47.52000045776367)"></path></g></g></g></g> <!----></g>
    </svg>
